<svg width="24" height="24" viewBox="0 0 24 24" fill="none" xmlns="http://www.w3.org/2000/svg">
  <path d="M13.483 0.537C13.063 0.117 12.417 0 11.997 0C11.577 0 10.931 0.117 10.511 0.537L1.631 9.417C1.211 9.837 1.094 10.483 1.094 10.903C1.094 11.323 1.211 11.969 1.631 12.389L10.511 21.269C10.931 21.689 11.577 21.806 11.997 21.806C12.417 21.806 13.063 21.689 13.483 21.269L22.363 12.389C22.783 11.969 22.9 11.323 22.9 10.903C22.9 10.483 22.783 9.837 22.363 9.417L13.483 0.537Z" fill="#FFA116"/>
  <path d="M13.483 0.537C13.063 0.117 12.417 0 11.997 0C11.577 0 10.931 0.117 10.511 0.537L1.631 9.417C1.211 9.837 1.094 10.483 1.094 10.903C1.094 11.323 1.211 11.969 1.631 12.389L10.511 21.269C10.931 21.689 11.577 21.806 11.997 21.806C12.417 21.806 13.063 21.689 13.483 21.269L22.363 12.389C22.783 11.969 22.9 11.323 22.9 10.903C22.9 10.483 22.783 9.837 22.363 9.417L13.483 0.537Z" fill="url(#paint0_linear_0_1)"/>
  <path d="M22 9.417L13.12 0.537C12.7 0.117 12.054 0 11.634 0C11.214 0 10.568 0.117 10.148 0.537L8.574 2.111L19.689 13.226L22 10.915C22.42 10.495 22.537 9.849 22.537 9.429C22.537 9.009 22.42 8.363 22 7.943V9.417Z" fill="#B3B3B3"/>
  <path d="M8.574 2.111L19.689 13.226L22 10.915C22.42 10.495 22.537 9.849 22.537 9.429C22.537 9.009 22.42 8.363 22 7.943V9.417L13.12 0.537C12.7 0.117 12.054 0 11.634 0C11.214 0 10.568 0.117 10.148 0.537L8.574 2.111Z" fill="url(#paint1_linear_0_1)"/>
  <path d="M8.574 2.111L19.689 13.226L22 10.915C22.42 10.495 22.537 9.849 22.537 9.429C22.537 9.009 22.42 8.363 22 7.943V9.417L13.12 0.537C12.7 0.117 12.054 0 11.634 0C11.214 0 10.568 0.117 10.148 0.537L8.574 2.111Z" fill="url(#paint2_linear_0_1)"/>
  <path d="M8.574 2.111L19.689 13.226L10.148 22.767C9.728 23.187 9.082 23.304 8.662 23.304C8.242 23.304 7.596 23.187 7.176 22.767L1.631 17.222C1.211 16.802 1.094 16.156 1.094 15.736C1.094 15.316 1.211 14.67 1.631 14.25L8.574 7.307V2.111Z" fill="#000000"/>
  <defs>
    <linearGradient id="paint0_linear_0_1" x1="11.9972" y1="0" x2="11.9972" y2="21.8057" gradientUnits="userSpaceOnUse">
      <stop stop-color="#FFA116"/>
      <stop offset="1" stop-color="#FFA116" stop-opacity="0"/>
    </linearGradient>
    <linearGradient id="paint1_linear_0_1" x1="15.5574" y1="0" x2="15.5574" y2="13.2264" gradientUnits="userSpaceOnUse">
      <stop stop-color="#B3B3B3"/>
      <stop offset="1" stop-color="#B3B3B3" stop-opacity="0"/>
    </linearGradient>
    <linearGradient id="paint2_linear_0_1" x1="15.5574" y1="0" x2="15.5574" y2="13.2264" gradientUnits="userSpaceOnUse">
      <stop stop-color="#B3B3B3"/>
      <stop offset="1" stop-color="#B3B3B3" stop-opacity="0"/>
    </linearGradient>
  </defs>
</svg>
